# xmcd CD database file
#
# Track frame offsets:
#	150
#	22405
#	39732
#	67232
#	89118
#	105615
#	118764
#	136240
#	152286
#	170419
#
# Disc length: 2469 seconds
#
# Revision: 0
# Processed by: cddbd v1.5.1PL2 Copyright (c) Steve Scherf et al.
# Submitted via: CDex 1.51
#
DISCID=8e09a30a
DTITLE=Memphis Jazz Band - Los preferidos del Jazz II
DYEAR=2005
DGENRE=Jazz
TTITLE0=You'd be so nice to come home to
TTITLE1=It's only a paper moon
TTITLE2=In a mellow tone
TTITLE3=In the Court of King Oliver
TTITLE4=I used to love you
TTITLE5=Just you, just me
TTITLE6=Muskrat ramble
TTITLE7=Somebody stole my gal
TTITLE8=Jazz me blues
TTITLE9=Do you know what it means to miss New Orleans?
EXTD=YEAR: 2005
EXTT0=
EXTT1=
EXTT2=
EXTT3=
EXTT4=
EXTT5=
EXTT6=
EXTT7=
EXTT8=
EXTT9=
PLAYORDER=
